<?xml version="1.0" encoding="utf-8"?>
<!-- Generator: Adobe Illustrator 24.1.0, SVG Export Plug-In . SVG Version: 6.00 Build 0)  -->
<svg version="1.1" id="Layer_1" xmlns="http://www.w3.org/2000/svg" xmlns:xlink="http://www.w3.org/1999/xlink" x="0px" y="0px"
	 viewBox="0 0 193.1 117.8" style="enable-background:new 0 0 193.1 117.8;" xml:space="preserve">
<style type="text/css">
	.st0{fill:#FFFFFF;}
</style>
<g>
	<path class="st0" d="M51,0L0,29.4v58.9l51,29.4l51-29.4V29.4L51,0z M8.2,34.2L51,9.4l42.8,24.7v49.5l0,0c-3.4-4.3-8.1-7.4-13.4-8.8
		C76.5,62.1,64.6,53.1,51,53.1c-13.6,0-25.5,9-29.4,21.8c-5.3,1.4-10,4.5-13.4,8.8l0,0V34.2z M15.4,87.8c2.7-2.9,6.2-4.8,10.1-5.4
		l2.8-0.4l0.6-2.8C31.1,68.8,40.4,61.2,51,61.2s19.9,7.5,22.1,17.9l0.6,2.8l2.8,0.4c3.9,0.6,7.5,2.5,10.1,5.4L51,108.4L15.4,87.8z"
		/>
	<g>
		<path class="st0" d="M126.9,32v14.8H124V32h-5.7v-2.5h14.3V32H126.9z"/>
		<path class="st0" d="M136.7,35.9c0.9-1.2,2.2-1.8,3.6-1.8c2.8,0,4.5,1.7,4.5,5.1v7.6H142v-7.3c0-2.2-1-3.1-2.5-3.1
			c-1.6,0-2.8,1.2-2.8,3.6v6.9h-2.8V29.4h2.8L136.7,35.9L136.7,35.9z"/>
		<path class="st0" d="M155.4,43.1h2.9c-0.5,2.2-2.5,4.1-5.7,4.1c-3.8,0-6-2.7-6-6.7c0-3.7,2.2-6.4,6-6.4c2.8,0,4.9,1.6,5.6,4.2
			c0.2,0.8,0.3,1.7,0.3,2.9h-9.1c0.1,2.8,1.5,4,3.2,4C154.2,45.1,155.2,44.3,155.4,43.1z M149.4,39.4h6.3c-0.2-2.2-1.5-3.2-3.1-3.2
			C150.9,36.1,149.6,37.2,149.4,39.4z"/>
		<path class="st0" d="M131.7,55.5h-3c0-2.2-1.2-3.3-3.5-3.3c-1.9,0-3.1,0.9-3.1,2.3c0,1.6,1.2,2.1,4,2.8c3.3,0.8,6,1.7,6,5.3
			c0,3.2-2.6,5.3-6.5,5.3c-4.2,0-6.8-2.1-6.8-6.1h3c0,2.5,1.4,3.7,3.8,3.7c2.2,0,3.4-1,3.4-2.6c0-1.8-1.3-2.1-3.9-2.8
			c-3.3-0.8-6-1.6-6-5.3c0-3,2.4-5,6.1-5C129.5,49.8,131.7,51.8,131.7,55.5z"/>
		<path class="st0" d="M140.2,65.3v2.2c-0.4,0.1-1,0.2-1.6,0.2c-2.6,0-3.8-1.1-3.8-3.8v-6.6h-2.1v-2.1h2.1v-3.1h2.8v3.1h2.4v2.1
			h-2.4v6.2c0,1.4,0.5,2,1.7,2C139.7,65.5,140,65.4,140.2,65.3z"/>
		<path class="st0" d="M148.9,55.1v2.5c-0.3-0.1-0.7-0.1-1-0.1c-2.2,0-3.4,1.4-3.4,4v6.1h-2.8V55.2h2.6V57h0c0.8-1.3,2-2,3.5-2
			C148.2,55,148.6,55.1,148.9,55.1z"/>
		<path class="st0" d="M160.1,59.7v4.6c0,1.5,0.1,2.5,0.3,3.3h-2.5c-0.1-0.5-0.2-1.1-0.2-1.7h0c-0.9,1.3-2.3,2-4.2,2
			c-2.6,0-4.2-1.6-4.2-3.7c0-2,1.2-3.3,4.8-3.9c1-0.2,2.5-0.3,3.3-0.4v-0.5c0-1.8-1-2.6-2.4-2.6c-1.5,0-2.4,0.9-2.4,2.2h-2.7
			c0.1-2.3,1.8-4.2,5.2-4.2C158.2,54.8,160.1,56.4,160.1,59.7z M157.4,61.7c-0.8,0-2,0.2-2.9,0.3c-1.8,0.3-2.4,0.8-2.4,2
			c0,1.1,0.8,1.8,2.2,1.8c0.9,0,1.7-0.3,2.2-0.8c0.7-0.7,0.9-1.3,0.9-2.7V61.7z"/>
		<path class="st0" d="M168.4,65.3v2.2c-0.4,0.1-1,0.2-1.6,0.2c-2.6,0-3.8-1.1-3.8-3.8v-6.6H161v-2.1h2.1v-3.1h2.8v3.1h2.4v2.1h-2.4
			v6.2c0,1.4,0.5,2,1.7,2C167.9,65.5,168.3,65.4,168.4,65.3z"/>
		<path class="st0" d="M169.8,62.8v-7.6h2.8v7.3c0,2.2,1,3.1,2.5,3.1c1.6,0,2.8-1.2,2.8-3.6v-6.9h2.8v12.4H178V66h0
			c-0.8,1.1-2.1,1.9-3.7,1.9C171.5,67.9,169.8,66.2,169.8,62.8z"/>
		<path class="st0" d="M192.7,59H190c0-1.5-0.9-2.2-2.4-2.2c-1.3,0-2.1,0.6-2.1,1.5c0,1.1,0.9,1.3,2.8,1.8c2.3,0.6,4.7,1.1,4.7,4.1
			c0,2.2-2,3.8-5.2,3.8c-3.3,0-5.3-1.5-5.4-4.4h2.8c0,1.5,0.9,2.4,2.6,2.4c1.4,0,2.2-0.6,2.2-1.5c0-1.3-1-1.5-3.1-2.1
			c-2.1-0.5-4.2-1-4.2-3.8c0-2.2,2-3.7,4.9-3.7C190.8,54.8,192.7,56.3,192.7,59z"/>
		<path class="st0" d="M126.5,70.9c4.1,0,6.2,2.2,6.2,5.4c0,3.3-2.1,5.4-6.2,5.4h-3.3v6.5h-2.9V70.9H126.5z M123.1,79.3h3
			c2.5,0,3.6-1.1,3.6-3c0-1.8-1.1-3-3.6-3h-3V79.3z"/>
		<path class="st0" d="M141.4,75.9v2.5c-0.3-0.1-0.7-0.1-1-0.1c-2.2,0-3.4,1.4-3.4,4v6.1h-2.8V75.9h2.6v1.8h0c0.8-1.3,2-2,3.5-2
			C140.7,75.8,141.1,75.8,141.4,75.9z"/>
		<path class="st0" d="M154,82.1c0,4-2.3,6.6-6.1,6.6c-3.8,0-6.1-2.5-6.1-6.6c0-4,2.4-6.6,6.1-6.6C151.7,75.6,154,78.1,154,82.1z
			 M144.7,82.1c0,2.7,1.2,4.4,3.2,4.4s3.2-1.7,3.2-4.4s-1.2-4.4-3.2-4.4S144.7,79.4,144.7,82.1z"/>
		<path class="st0" d="M158.6,88.8c0,3-1.6,4.2-3.9,4.2c-0.5,0-1-0.1-1.4-0.2v-2.1c0.2,0,0.4,0.1,0.7,0.1c1.2,0,1.9-0.6,1.9-2.3
			V75.9h2.8V88.8z M155.8,73.6v-2.7h2.8v2.7H155.8z"/>
		<path class="st0" d="M169.4,84.6h2.9c-0.5,2.2-2.5,4.1-5.7,4.1c-3.8,0-6-2.7-6-6.7c0-3.7,2.2-6.4,6-6.4c2.8,0,4.9,1.6,5.6,4.2
			c0.2,0.8,0.3,1.7,0.3,2.9h-9.1c0.1,2.8,1.5,4,3.2,4C168.1,86.6,169.1,85.8,169.4,84.6z M163.3,80.9h6.3c-0.2-2.2-1.5-3.2-3.1-3.2
			C164.8,77.6,163.5,78.7,163.3,80.9z"/>
		<path class="st0" d="M185.1,80.4h-2.9c-0.1-1.6-1.2-2.7-2.7-2.7c-2,0-3.1,1.7-3.1,4.4c0,2.7,1.1,4.4,3.1,4.4
			c1.5,0,2.5-1.2,2.7-2.9h2.9c-0.2,3-2.4,5.1-5.6,5.1c-3.7,0-6-2.5-6-6.6c0-4,2.4-6.6,6-6.6C182.7,75.6,184.9,77.6,185.1,80.4z"/>
		<path class="st0" d="M193,86.1v2.2c-0.4,0.1-1,0.2-1.6,0.2c-2.6,0-3.8-1.1-3.8-3.8v-6.6h-2.1v-2.1h2.1v-3.1h2.8v3.1h2.4v2.1h-2.4
			v6.2c0,1.4,0.5,2,1.7,2C192.5,86.2,192.8,86.2,193,86.1z"/>
	</g>
</g>
</svg>
